<svg version="1.0" xmlns="http://www.w3.org/2000/svg"
 width="80.000000pt" height="80.000000pt" viewBox="0 0 80.000000 80.000000"
 preserveAspectRatio="xMidYMid meet">

<g transform="translate(0.000000,80.000000) scale(0.100000,-0.100000)"
fill="#000000" stroke="none">
<path d="M320 790 c-159 -34 -282 -163 -311 -328 -46 -259 194 -499 453 -453
298 52 433 386 254 629 -40 55 -119 114 -184 137 -57 19 -156 26 -212 15z
m243 -44 c74 -35 147 -109 184 -183 25 -53 28 -68 28 -163 0 -95 -3 -110 -28
-163 -37 -74 -110 -147 -184 -184 -53 -25 -68 -28 -163 -28 -96 0 -110 3 -165
29 -127 63 -205 179 -213 316 -6 101 11 167 60 240 45 68 114 123 190 151 80
29 213 22 291 -15z"/>
<path d="M293 722 c-63 -23 -127 -66 -154 -104 l-20 -28 60 0 c46 0 61 -3 61
-14 0 -8 -10 -16 -23 -18 -23 -3 -23 -4 38 -182 l62 -179 36 107 36 107 -27
74 c-23 63 -30 75 -49 75 -14 0 -23 6 -23 15 0 12 18 15 105 15 87 0 105 -3
105 -15 0 -9 -9 -15 -24 -15 l-25 0 55 -162 c30 -90 57 -170 60 -178 7 -17 49
109 60 177 5 35 1 54 -25 109 -17 36 -31 75 -31 86 0 29 18 58 37 58 29 0 -13
36 -70 61 -72 31 -176 35 -244 11z"/>
<path d="M71 487 c-24 -97 -7 -195 49 -280 29 -42 108 -112 118 -103 3 4 -132
386 -148 415 -4 8 -11 -3 -19 -32z"/>
<path d="M706 505 c-3 -16 -33 -111 -66 -209 -33 -98 -59 -181 -56 -183 10
-11 101 95 123 144 32 69 40 169 20 233 l-14 45 -7 -30z"/>
<path d="M356 219 c-26 -77 -45 -143 -41 -147 11 -11 173 -8 184 3 6 7 -8 57
-40 145 -28 74 -51 135 -52 136 -1 1 -24 -60 -51 -137z"/>
</g>
</svg>